# xmcd
#
# Track frame offsets: 
#        182
#        11970
#        23107
#        34895
#        48120
#        58782
#        71407
#        84820
#        97170
#        107820
#        122307
#        132120
#        141607
#        151457
#        164895
#        179720
#        194632
#        206320
#
# Disc length: 2905 seconds
#
# Revision: 2
# Processed by: cddbd v1.5.2PL0 Copyright (c) Steve Scherf et al.
# Submitted via: ExactAudioCopyFreeDBPlugin 1.0
#
DISCID=070b5712
DTITLE=Shorty Long - Essential Collection
DYEAR=2000
DGENRE=Soul
TTITLE0=Here Comes The Judge
TTITLE1=Don't Mess With My Weekend
TTITLE2=Night Fo' Last (vocal version)
TTITLE3=Function At The Junction
TTITLE4=Sing What You Wanna
TTITLE5=Here Comes Fat Albert
TTITLE6=Ain't No Justice
TTITLE7=Lillie Of The Valley
TTITLE8=Baby Come Home To Me
TTITLE9=Devil With The Blue Dress On
TTITLE10=Out To Get You
TTITLE11=People Sure Act Funny
TTITLE12=Your Love's Amazing
TTITLE13=Another Hurt Like This
TTITLE14=I Cross My Heart
TTITLE15=I Had A Dream
TTITLE16=I Wish You Were Here
TTITLE17=Night Fo' Last (instrumental version)
EXTD=YEAR: 2000\n
EXTT0=
EXTT1=
EXTT2=
EXTT3=
EXTT4=
EXTT5=
EXTT6=
EXTT7=
EXTT8=
EXTT9=
EXTT10=
EXTT11=
EXTT12=
EXTT13=
EXTT14=
EXTT15=
EXTT16=
EXTT17=
PLAYORDER=
